G04 (created by PCBNEW (2013-june-11)-stable) date Tue 08 Apr 2014 06:28:42 PM PDT*
%MOIN*%
G04 Gerber Fmt 3.4, Leading zero omitted, Abs format*
%FSLAX34Y34*%
G01*
G70*
G90*
G04 APERTURE LIST*
%ADD10C,0.00590551*%
%ADD11C,0.00787402*%
%ADD12C,0.01*%
%ADD13C,0.011811*%
%ADD14C,0.006*%
G04 APERTURE END LIST*
G54D10*
G54D11*
X84300Y-61500D02*
X84300Y-61000D01*
X83800Y-61500D02*
X84300Y-61500D01*
X80300Y-61500D02*
X80300Y-61000D01*
X80800Y-61500D02*
X80300Y-61500D01*
X84300Y-55200D02*
X84300Y-55700D01*
X83800Y-55200D02*
X84300Y-55200D01*
X80300Y-55200D02*
X80300Y-55700D01*
X80800Y-55200D02*
X80300Y-55200D01*
G54D12*
X81709Y-54048D02*
X81821Y-54048D01*
X81878Y-54076D01*
X81934Y-54132D01*
X81962Y-54245D01*
X81962Y-54442D01*
X81934Y-54554D01*
X81878Y-54610D01*
X81821Y-54639D01*
X81709Y-54639D01*
X81653Y-54610D01*
X81596Y-54554D01*
X81568Y-54442D01*
X81568Y-54245D01*
X81596Y-54132D01*
X81653Y-54076D01*
X81709Y-54048D01*
X82215Y-54048D02*
X82215Y-54526D01*
X82243Y-54582D01*
X82271Y-54610D01*
X82328Y-54639D01*
X82440Y-54639D01*
X82496Y-54610D01*
X82524Y-54582D01*
X82553Y-54526D01*
X82553Y-54048D01*
X82749Y-54048D02*
X83087Y-54048D01*
X82918Y-54639D02*
X82918Y-54048D01*
X81709Y-61948D02*
X81821Y-61948D01*
X81878Y-61976D01*
X81934Y-62032D01*
X81962Y-62145D01*
X81962Y-62342D01*
X81934Y-62454D01*
X81878Y-62510D01*
X81821Y-62539D01*
X81709Y-62539D01*
X81653Y-62510D01*
X81596Y-62454D01*
X81568Y-62342D01*
X81568Y-62145D01*
X81596Y-62032D01*
X81653Y-61976D01*
X81709Y-61948D01*
X82215Y-61948D02*
X82215Y-62426D01*
X82243Y-62482D01*
X82271Y-62510D01*
X82328Y-62539D01*
X82440Y-62539D01*
X82496Y-62510D01*
X82524Y-62482D01*
X82553Y-62426D01*
X82553Y-61948D01*
X82749Y-61948D02*
X83087Y-61948D01*
X82918Y-62539D02*
X82918Y-61948D01*
G54D13*
X83850Y-55976D02*
X83793Y-55948D01*
X83709Y-55948D01*
X83625Y-55976D01*
X83568Y-56032D01*
X83540Y-56089D01*
X83512Y-56201D01*
X83512Y-56285D01*
X83540Y-56398D01*
X83568Y-56454D01*
X83625Y-56510D01*
X83709Y-56539D01*
X83765Y-56539D01*
X83850Y-56510D01*
X83878Y-56482D01*
X83878Y-56285D01*
X83765Y-56285D01*
X84131Y-56539D02*
X84131Y-55948D01*
X84468Y-56539D01*
X84468Y-55948D01*
X84749Y-56539D02*
X84749Y-55948D01*
X84890Y-55948D01*
X84974Y-55976D01*
X85031Y-56032D01*
X85059Y-56089D01*
X85087Y-56201D01*
X85087Y-56285D01*
X85059Y-56398D01*
X85031Y-56454D01*
X84974Y-56510D01*
X84890Y-56539D01*
X84749Y-56539D01*
X79512Y-55948D02*
X79709Y-56539D01*
X79906Y-55948D01*
X80103Y-56539D02*
X80103Y-55948D01*
X80243Y-55948D01*
X80328Y-55976D01*
X80384Y-56032D01*
X80412Y-56089D01*
X80440Y-56201D01*
X80440Y-56285D01*
X80412Y-56398D01*
X80384Y-56454D01*
X80328Y-56510D01*
X80243Y-56539D01*
X80103Y-56539D01*
X80693Y-56539D02*
X80693Y-55948D01*
X80834Y-55948D01*
X80918Y-55976D01*
X80974Y-56032D01*
X81003Y-56089D01*
X81031Y-56201D01*
X81031Y-56285D01*
X81003Y-56398D01*
X80974Y-56454D01*
X80918Y-56510D01*
X80834Y-56539D01*
X80693Y-56539D01*
X79512Y-60048D02*
X79709Y-60639D01*
X79906Y-60048D01*
X80103Y-60639D02*
X80103Y-60048D01*
X80243Y-60048D01*
X80328Y-60076D01*
X80384Y-60132D01*
X80412Y-60189D01*
X80440Y-60301D01*
X80440Y-60385D01*
X80412Y-60498D01*
X80384Y-60554D01*
X80328Y-60610D01*
X80243Y-60639D01*
X80103Y-60639D01*
X80693Y-60639D02*
X80693Y-60048D01*
X80834Y-60048D01*
X80918Y-60076D01*
X80974Y-60132D01*
X81003Y-60189D01*
X81031Y-60301D01*
X81031Y-60385D01*
X81003Y-60498D01*
X80974Y-60554D01*
X80918Y-60610D01*
X80834Y-60639D01*
X80693Y-60639D01*
X83850Y-60076D02*
X83793Y-60048D01*
X83709Y-60048D01*
X83625Y-60076D01*
X83568Y-60132D01*
X83540Y-60189D01*
X83512Y-60301D01*
X83512Y-60385D01*
X83540Y-60498D01*
X83568Y-60554D01*
X83625Y-60610D01*
X83709Y-60639D01*
X83765Y-60639D01*
X83850Y-60610D01*
X83878Y-60582D01*
X83878Y-60385D01*
X83765Y-60385D01*
X84131Y-60639D02*
X84131Y-60048D01*
X84468Y-60639D01*
X84468Y-60048D01*
X84749Y-60639D02*
X84749Y-60048D01*
X84890Y-60048D01*
X84974Y-60076D01*
X85031Y-60132D01*
X85059Y-60189D01*
X85087Y-60301D01*
X85087Y-60385D01*
X85059Y-60498D01*
X85031Y-60554D01*
X84974Y-60610D01*
X84890Y-60639D01*
X84749Y-60639D01*
G54D11*
X84600Y-57600D02*
X84200Y-57600D01*
X84600Y-59000D02*
X84600Y-57600D01*
X84200Y-59000D02*
X84600Y-59000D01*
X80000Y-59000D02*
X80400Y-59000D01*
X80000Y-57600D02*
X80000Y-59000D01*
X80400Y-57600D02*
X80000Y-57600D01*
G54D13*
X83700Y-59048D02*
X83700Y-59189D01*
X83559Y-59132D02*
X83700Y-59189D01*
X83840Y-59132D01*
X83615Y-59301D02*
X83700Y-59189D01*
X83784Y-59301D01*
G54D10*
X84289Y-58300D02*
G75*
G03X84289Y-58300I-1989J0D01*
G74*
G01*
G54D14*
X80800Y-55800D02*
X80800Y-54800D01*
X80800Y-54800D02*
X83800Y-54800D01*
X83800Y-54800D02*
X83800Y-55800D01*
X83800Y-55800D02*
X80800Y-55800D01*
X81800Y-54800D02*
X81800Y-55800D01*
X80800Y-61800D02*
X80800Y-60800D01*
X80800Y-60800D02*
X83800Y-60800D01*
X83800Y-60800D02*
X83800Y-61800D01*
X83800Y-61800D02*
X80800Y-61800D01*
X81800Y-60800D02*
X81800Y-61800D01*
G54D10*
X82000Y-56565D02*
X82000Y-56884D01*
X82018Y-56921D01*
X82037Y-56940D01*
X82075Y-56959D01*
X82150Y-56959D01*
X82187Y-56940D01*
X82206Y-56921D01*
X82225Y-56884D01*
X82225Y-56565D01*
X82618Y-56959D02*
X82393Y-56959D01*
X82506Y-56959D02*
X82506Y-56565D01*
X82468Y-56621D01*
X82431Y-56659D01*
X82393Y-56678D01*
X81906Y-60059D02*
X81906Y-59665D01*
X82056Y-59665D01*
X82093Y-59684D01*
X82112Y-59703D01*
X82131Y-59740D01*
X82131Y-59796D01*
X82112Y-59834D01*
X82093Y-59853D01*
X82056Y-59871D01*
X81906Y-59871D01*
X82300Y-60059D02*
X82300Y-59665D01*
X82712Y-60059D02*
X82581Y-59871D01*
X82487Y-60059D02*
X82487Y-59665D01*
X82637Y-59665D01*
X82674Y-59684D01*
X82693Y-59703D01*
X82712Y-59740D01*
X82712Y-59796D01*
X82693Y-59834D01*
X82674Y-59853D01*
X82637Y-59871D01*
X82487Y-59871D01*
M02*
