G04 (created by PCBNEW (2013-june-11)-stable) date Mon 31 Mar 2014 06:26:42 AM PDT*
%MOIN*%
G04 Gerber Fmt 3.4, Leading zero omitted, Abs format*
%FSLAX34Y34*%
G01*
G70*
G90*
G04 APERTURE LIST*
%ADD10C,0.00590551*%
%ADD11C,0.00787402*%
%ADD12C,0.01*%
%ADD13C,0.011811*%
%ADD14C,0.006*%
G04 APERTURE END LIST*
G54D10*
G54D11*
X84300Y-61500D02*
X84300Y-61000D01*
X83800Y-61500D02*
X84300Y-61500D01*
X80300Y-61500D02*
X80300Y-61000D01*
X80800Y-61500D02*
X80300Y-61500D01*
X84300Y-55200D02*
X84300Y-55700D01*
X83800Y-55200D02*
X84300Y-55200D01*
X80300Y-55200D02*
X80300Y-55700D01*
X80800Y-55200D02*
X80300Y-55200D01*
G54D12*
X81900Y-54061D02*
X81976Y-54061D01*
X82014Y-54080D01*
X82052Y-54119D01*
X82071Y-54195D01*
X82071Y-54328D01*
X82052Y-54404D01*
X82014Y-54442D01*
X81976Y-54461D01*
X81900Y-54461D01*
X81861Y-54442D01*
X81823Y-54404D01*
X81804Y-54328D01*
X81804Y-54195D01*
X81823Y-54119D01*
X81861Y-54080D01*
X81900Y-54061D01*
X82242Y-54061D02*
X82242Y-54385D01*
X82261Y-54423D01*
X82280Y-54442D01*
X82319Y-54461D01*
X82395Y-54461D01*
X82433Y-54442D01*
X82452Y-54423D01*
X82471Y-54385D01*
X82471Y-54061D01*
X82604Y-54061D02*
X82833Y-54061D01*
X82719Y-54461D02*
X82719Y-54061D01*
X81900Y-62161D02*
X81976Y-62161D01*
X82014Y-62180D01*
X82052Y-62219D01*
X82071Y-62295D01*
X82071Y-62428D01*
X82052Y-62504D01*
X82014Y-62542D01*
X81976Y-62561D01*
X81900Y-62561D01*
X81861Y-62542D01*
X81823Y-62504D01*
X81804Y-62428D01*
X81804Y-62295D01*
X81823Y-62219D01*
X81861Y-62180D01*
X81900Y-62161D01*
X82242Y-62161D02*
X82242Y-62485D01*
X82261Y-62523D01*
X82280Y-62542D01*
X82319Y-62561D01*
X82395Y-62561D01*
X82433Y-62542D01*
X82452Y-62523D01*
X82471Y-62485D01*
X82471Y-62161D01*
X82604Y-62161D02*
X82833Y-62161D01*
X82719Y-62561D02*
X82719Y-62161D01*
G54D13*
X83850Y-55976D02*
X83793Y-55948D01*
X83709Y-55948D01*
X83625Y-55976D01*
X83568Y-56032D01*
X83540Y-56089D01*
X83512Y-56201D01*
X83512Y-56285D01*
X83540Y-56398D01*
X83568Y-56454D01*
X83625Y-56510D01*
X83709Y-56539D01*
X83765Y-56539D01*
X83850Y-56510D01*
X83878Y-56482D01*
X83878Y-56285D01*
X83765Y-56285D01*
X84131Y-56539D02*
X84131Y-55948D01*
X84468Y-56539D01*
X84468Y-55948D01*
X84749Y-56539D02*
X84749Y-55948D01*
X84890Y-55948D01*
X84974Y-55976D01*
X85031Y-56032D01*
X85059Y-56089D01*
X85087Y-56201D01*
X85087Y-56285D01*
X85059Y-56398D01*
X85031Y-56454D01*
X84974Y-56510D01*
X84890Y-56539D01*
X84749Y-56539D01*
X79512Y-55948D02*
X79709Y-56539D01*
X79906Y-55948D01*
X80103Y-56539D02*
X80103Y-55948D01*
X80243Y-55948D01*
X80328Y-55976D01*
X80384Y-56032D01*
X80412Y-56089D01*
X80440Y-56201D01*
X80440Y-56285D01*
X80412Y-56398D01*
X80384Y-56454D01*
X80328Y-56510D01*
X80243Y-56539D01*
X80103Y-56539D01*
X80693Y-56539D02*
X80693Y-55948D01*
X80834Y-55948D01*
X80918Y-55976D01*
X80974Y-56032D01*
X81003Y-56089D01*
X81031Y-56201D01*
X81031Y-56285D01*
X81003Y-56398D01*
X80974Y-56454D01*
X80918Y-56510D01*
X80834Y-56539D01*
X80693Y-56539D01*
X79512Y-60148D02*
X79709Y-60739D01*
X79906Y-60148D01*
X80103Y-60739D02*
X80103Y-60148D01*
X80243Y-60148D01*
X80328Y-60176D01*
X80384Y-60232D01*
X80412Y-60289D01*
X80440Y-60401D01*
X80440Y-60485D01*
X80412Y-60598D01*
X80384Y-60654D01*
X80328Y-60710D01*
X80243Y-60739D01*
X80103Y-60739D01*
X80693Y-60739D02*
X80693Y-60148D01*
X80834Y-60148D01*
X80918Y-60176D01*
X80974Y-60232D01*
X81003Y-60289D01*
X81031Y-60401D01*
X81031Y-60485D01*
X81003Y-60598D01*
X80974Y-60654D01*
X80918Y-60710D01*
X80834Y-60739D01*
X80693Y-60739D01*
X83850Y-60176D02*
X83793Y-60148D01*
X83709Y-60148D01*
X83625Y-60176D01*
X83568Y-60232D01*
X83540Y-60289D01*
X83512Y-60401D01*
X83512Y-60485D01*
X83540Y-60598D01*
X83568Y-60654D01*
X83625Y-60710D01*
X83709Y-60739D01*
X83765Y-60739D01*
X83850Y-60710D01*
X83878Y-60682D01*
X83878Y-60485D01*
X83765Y-60485D01*
X84131Y-60739D02*
X84131Y-60148D01*
X84468Y-60739D01*
X84468Y-60148D01*
X84749Y-60739D02*
X84749Y-60148D01*
X84890Y-60148D01*
X84974Y-60176D01*
X85031Y-60232D01*
X85059Y-60289D01*
X85087Y-60401D01*
X85087Y-60485D01*
X85059Y-60598D01*
X85031Y-60654D01*
X84974Y-60710D01*
X84890Y-60739D01*
X84749Y-60739D01*
G54D11*
X84600Y-57600D02*
X84200Y-57600D01*
X84600Y-59000D02*
X84600Y-57600D01*
X84200Y-59000D02*
X84600Y-59000D01*
X80000Y-59000D02*
X80400Y-59000D01*
X80000Y-57600D02*
X80000Y-59000D01*
X80400Y-57600D02*
X80000Y-57600D01*
G54D13*
X83700Y-59048D02*
X83700Y-59189D01*
X83559Y-59132D02*
X83700Y-59189D01*
X83840Y-59132D01*
X83615Y-59301D02*
X83700Y-59189D01*
X83784Y-59301D01*
G54D10*
X84289Y-58300D02*
G75*
G03X84289Y-58300I-1989J0D01*
G74*
G01*
G54D14*
X80800Y-55700D02*
X80800Y-54700D01*
X80800Y-54700D02*
X83800Y-54700D01*
X83800Y-54700D02*
X83800Y-55700D01*
X83800Y-55700D02*
X80800Y-55700D01*
X81800Y-54700D02*
X81800Y-55700D01*
X80800Y-62000D02*
X80800Y-61000D01*
X80800Y-61000D02*
X83800Y-61000D01*
X83800Y-61000D02*
X83800Y-62000D01*
X83800Y-62000D02*
X80800Y-62000D01*
X81800Y-61000D02*
X81800Y-62000D01*
G54D10*
X82000Y-56565D02*
X82000Y-56884D01*
X82018Y-56921D01*
X82037Y-56940D01*
X82075Y-56959D01*
X82150Y-56959D01*
X82187Y-56940D01*
X82206Y-56921D01*
X82225Y-56884D01*
X82225Y-56565D01*
X82618Y-56959D02*
X82393Y-56959D01*
X82506Y-56959D02*
X82506Y-56565D01*
X82468Y-56621D01*
X82431Y-56659D01*
X82393Y-56678D01*
X81906Y-60059D02*
X81906Y-59665D01*
X82056Y-59665D01*
X82093Y-59684D01*
X82112Y-59703D01*
X82131Y-59740D01*
X82131Y-59796D01*
X82112Y-59834D01*
X82093Y-59853D01*
X82056Y-59871D01*
X81906Y-59871D01*
X82300Y-60059D02*
X82300Y-59665D01*
X82712Y-60059D02*
X82581Y-59871D01*
X82487Y-60059D02*
X82487Y-59665D01*
X82637Y-59665D01*
X82674Y-59684D01*
X82693Y-59703D01*
X82712Y-59740D01*
X82712Y-59796D01*
X82693Y-59834D01*
X82674Y-59853D01*
X82637Y-59871D01*
X82487Y-59871D01*
M02*
