G04 (created by PCBNEW (2013-june-11)-stable) date Mon 31 Mar 2014 06:26:42 AM PDT*
%MOIN*%
G04 Gerber Fmt 3.4, Leading zero omitted, Abs format*
%FSLAX34Y34*%
G01*
G70*
G90*
G04 APERTURE LIST*
%ADD10C,0.00590551*%
%ADD11C,0.01*%
%ADD12C,0.05*%
%ADD13C,0.14*%
%ADD14R,0.06X0.06*%
%ADD15C,0.06*%
G04 APERTURE END LIST*
G54D10*
G54D11*
X84319Y-57081D02*
X84319Y-56681D01*
X84166Y-56681D01*
X84128Y-56700D01*
X84109Y-56720D01*
X84090Y-56758D01*
X84090Y-56815D01*
X84109Y-56853D01*
X84128Y-56872D01*
X84166Y-56891D01*
X84319Y-56891D01*
X83919Y-57081D02*
X83919Y-56681D01*
X83500Y-57081D02*
X83633Y-56891D01*
X83728Y-57081D02*
X83728Y-56681D01*
X83576Y-56681D01*
X83538Y-56700D01*
X83519Y-56720D01*
X83500Y-56758D01*
X83500Y-56815D01*
X83519Y-56853D01*
X83538Y-56872D01*
X83576Y-56891D01*
X83728Y-56891D01*
X83080Y-56681D02*
X82947Y-57081D01*
X82814Y-56681D01*
X82680Y-57081D02*
X82680Y-56681D01*
X82585Y-56681D01*
X82528Y-56700D01*
X82490Y-56739D01*
X82471Y-56777D01*
X82452Y-56853D01*
X82452Y-56910D01*
X82471Y-56986D01*
X82490Y-57024D01*
X82528Y-57062D01*
X82585Y-57081D01*
X82680Y-57081D01*
X82280Y-57081D02*
X82280Y-56681D01*
X82185Y-56681D01*
X82128Y-56700D01*
X82090Y-56739D01*
X82071Y-56777D01*
X82052Y-56853D01*
X82052Y-56910D01*
X82071Y-56986D01*
X82090Y-57024D01*
X82128Y-57062D01*
X82185Y-57081D01*
X82280Y-57081D01*
X81880Y-57043D02*
X81861Y-57062D01*
X81880Y-57081D01*
X81900Y-57062D01*
X81880Y-57043D01*
X81880Y-57081D01*
X81880Y-56834D02*
X81861Y-56853D01*
X81880Y-56872D01*
X81900Y-56853D01*
X81880Y-56834D01*
X81880Y-56872D01*
X81423Y-56681D02*
X81176Y-56681D01*
X81309Y-56834D01*
X81252Y-56834D01*
X81214Y-56853D01*
X81195Y-56872D01*
X81176Y-56910D01*
X81176Y-57005D01*
X81195Y-57043D01*
X81214Y-57062D01*
X81252Y-57081D01*
X81366Y-57081D01*
X81404Y-57062D01*
X81423Y-57043D01*
X81004Y-57043D02*
X80985Y-57062D01*
X81004Y-57081D01*
X81023Y-57062D01*
X81004Y-57043D01*
X81004Y-57081D01*
X80852Y-56681D02*
X80604Y-56681D01*
X80738Y-56834D01*
X80680Y-56834D01*
X80642Y-56853D01*
X80623Y-56872D01*
X80604Y-56910D01*
X80604Y-57005D01*
X80623Y-57043D01*
X80642Y-57062D01*
X80680Y-57081D01*
X80795Y-57081D01*
X80833Y-57062D01*
X80852Y-57043D01*
X80490Y-56681D02*
X80357Y-57081D01*
X80223Y-56681D01*
X83242Y-58461D02*
X83242Y-58252D01*
X83261Y-58214D01*
X83300Y-58195D01*
X83376Y-58195D01*
X83414Y-58214D01*
X83242Y-58442D02*
X83280Y-58461D01*
X83376Y-58461D01*
X83414Y-58442D01*
X83433Y-58404D01*
X83433Y-58366D01*
X83414Y-58328D01*
X83376Y-58309D01*
X83280Y-58309D01*
X83242Y-58290D01*
X82880Y-58461D02*
X82880Y-58061D01*
X82880Y-58442D02*
X82919Y-58461D01*
X82995Y-58461D01*
X83033Y-58442D01*
X83052Y-58423D01*
X83071Y-58385D01*
X83071Y-58271D01*
X83052Y-58233D01*
X83033Y-58214D01*
X82995Y-58195D01*
X82919Y-58195D01*
X82880Y-58214D01*
X82519Y-58442D02*
X82557Y-58461D01*
X82633Y-58461D01*
X82671Y-58442D01*
X82690Y-58423D01*
X82709Y-58385D01*
X82709Y-58271D01*
X82690Y-58233D01*
X82671Y-58214D01*
X82633Y-58195D01*
X82557Y-58195D01*
X82519Y-58214D01*
X82347Y-58461D02*
X82347Y-58061D01*
X82347Y-58214D02*
X82309Y-58195D01*
X82233Y-58195D01*
X82195Y-58214D01*
X82176Y-58233D01*
X82157Y-58271D01*
X82157Y-58385D01*
X82176Y-58423D01*
X82195Y-58442D01*
X82233Y-58461D01*
X82309Y-58461D01*
X82347Y-58442D01*
X81814Y-58195D02*
X81814Y-58461D01*
X81909Y-58042D02*
X82004Y-58328D01*
X81757Y-58328D01*
X81585Y-58461D02*
X81509Y-58461D01*
X81471Y-58442D01*
X81452Y-58423D01*
X81414Y-58366D01*
X81395Y-58290D01*
X81395Y-58138D01*
X81414Y-58100D01*
X81433Y-58080D01*
X81471Y-58061D01*
X81547Y-58061D01*
X81585Y-58080D01*
X81604Y-58100D01*
X81623Y-58138D01*
X81623Y-58233D01*
X81604Y-58271D01*
X81585Y-58290D01*
X81547Y-58309D01*
X81471Y-58309D01*
X81433Y-58290D01*
X81414Y-58271D01*
X81395Y-58233D01*
X81280Y-58195D02*
X81128Y-58195D01*
X81223Y-58461D02*
X81223Y-58119D01*
X81204Y-58080D01*
X81166Y-58061D01*
X81128Y-58061D01*
G54D12*
X81580Y-57560D03*
X81560Y-59060D03*
X83060Y-59060D03*
G54D13*
X78900Y-58300D03*
G54D14*
X81300Y-55200D03*
G54D15*
X82300Y-55200D03*
X83300Y-55200D03*
G54D14*
X81300Y-61500D03*
G54D15*
X82300Y-61500D03*
X83300Y-61500D03*
G54D13*
X85700Y-58300D03*
M02*
